<svg viewBox="0 0 77 26" fill="none" xmlns="http://www.w3.org/2000/svg">
<path d="M9.36 0.625L0 25.065H5.03L6.95 19.965H16.89L18.82 25.065H23.81L14.5 0.625H9.35H9.36ZM8.68 15.475L11.95 6.875L15.2 15.475H8.68ZM29.82 18.765L25.76 7.895H20.96L27.5 25.065H32.25L38.69 7.905H33.89L29.83 18.775L29.82 18.765ZM44.72 7.895H40.15V25.065H44.71V7.905L44.72 7.895ZM42.42 6.655C42.872 6.6798 43.3243 6.61218 43.7492 6.45629C44.1742 6.30039 44.5629 6.05949 44.8917 5.7483C45.2204 5.43711 45.4822 5.06216 45.6612 4.64637C45.8401 4.23057 45.9324 3.78266 45.9324 3.33C45.9324 2.87734 45.8401 2.42943 45.6612 2.01363C45.4822 1.59784 45.2204 1.22289 44.8917 0.911701C44.5629 0.60051 44.1742 0.359608 43.7492 0.203713C43.3243 0.0478184 42.872 -0.0197963 42.42 0.00500021C41.5697 0.0516497 40.7696 0.422296 40.1841 1.04074C39.5987 1.65918 39.2724 2.47841 39.2724 3.33C39.2724 4.18159 39.5987 5.00082 40.1841 5.61926C40.7696 6.2377 41.5697 6.60835 42.42 6.655ZM53.76 3.315H49.2V7.865H46.53V12.005H49.2V19.305C49.2 23.435 51.48 25.225 54.69 25.225C55.7715 25.2373 56.8438 25.0262 57.84 24.605V20.345C57.3 20.545 56.73 20.645 56.14 20.655C54.75 20.655 53.74 20.115 53.74 18.255V12.005H57.84V7.905H53.74V3.315H53.76ZM67.46 7.585C65.6989 7.58318 63.9769 8.10386 62.5119 9.08113C61.0469 10.0584 59.9047 11.4483 59.23 13.075C58.3299 15.2523 58.3299 17.6977 59.23 19.875C60.1265 22.0576 61.853 23.7949 64.03 24.705C65.1109 25.1537 66.2697 25.3847 67.44 25.385C69.1889 25.3681 70.8941 24.8363 72.3425 23.856C73.791 22.8757 74.9185 21.4903 75.5842 19.873C76.2499 18.2557 76.4243 16.478 76.0856 14.7621C75.747 13.0462 74.9103 11.4681 73.68 10.225C72.0319 8.55913 69.7932 7.6105 67.45 7.585H67.46ZM67.46 20.825C66.8191 20.8268 66.1858 20.6863 65.6058 20.4137C65.0258 20.1411 64.5136 19.7431 64.106 19.2485C63.6985 18.7539 63.4058 18.175 63.2491 17.5536C63.0925 16.9322 63.0757 16.2837 63.2 15.655C63.3652 14.8136 63.7765 14.0403 64.3817 13.4329C64.987 12.8255 65.7589 12.4116 66.5997 12.2434C67.4405 12.0752 68.3122 12.1605 69.1045 12.4883C69.8968 12.8162 70.5739 13.3719 71.05 14.085C71.5267 14.7983 71.7808 15.6371 71.78 16.495C71.78 17.0632 71.6679 17.6257 71.4502 18.1505C71.2325 18.6753 70.9134 19.152 70.5112 19.5532C70.109 19.9545 69.6315 20.2725 69.1063 20.489C68.581 20.7055 68.0181 20.8163 67.45 20.815V20.825H67.46Z" fill="black"></path>
</svg>
