<svg width="121" height="42" viewBox="0 0 121 42" fill="none" xmlns="http://www.w3.org/2000/svg">
<path d="M0.948153 16V5.09091H8.17116V6.99254H3.25462V9.59197H7.69176V11.4936H3.25462V16H0.948153ZM19.7474 10.5455C19.7474 11.7351 19.5219 12.7472 19.0709 13.5817C18.6235 14.4162 18.0127 15.0536 17.2385 15.494C16.468 15.9308 15.6015 16.1491 14.6391 16.1491C13.6697 16.1491 12.7996 15.929 12.029 15.4886C11.2584 15.0483 10.6494 14.4109 10.202 13.5763C9.75453 12.7418 9.53081 11.7315 9.53081 10.5455C9.53081 9.35582 9.75453 8.34375 10.202 7.50923C10.6494 6.67472 11.2584 6.03906 12.029 5.60227C12.7996 5.16193 13.6697 4.94176 14.6391 4.94176C15.6015 4.94176 16.468 5.16193 17.2385 5.60227C18.0127 6.03906 18.6235 6.67472 19.0709 7.50923C19.5219 8.34375 19.7474 9.35582 19.7474 10.5455ZM17.409 10.5455C17.409 9.77486 17.2936 9.125 17.0628 8.59588C16.8355 8.06676 16.5141 7.66548 16.0986 7.39205C15.6831 7.11861 15.1966 6.98189 14.6391 6.98189C14.0816 6.98189 13.5951 7.11861 13.1796 7.39205C12.7641 7.66548 12.441 8.06676 12.2101 8.59588C11.9829 9.125 11.8692 9.77486 11.8692 10.5455C11.8692 11.3161 11.9829 11.9659 12.2101 12.495C12.441 13.0241 12.7641 13.4254 13.1796 13.6989C13.5951 13.9723 14.0816 14.109 14.6391 14.109C15.1966 14.109 15.6831 13.9723 16.0986 13.6989C16.5141 13.4254 16.8355 13.0241 17.0628 12.495C17.2936 11.9659 17.409 11.3161 17.409 10.5455ZM21.456 16V5.09091H25.7599C26.5838 5.09091 27.2869 5.23828 27.8693 5.53303C28.4553 5.82422 28.9009 6.23793 29.2063 6.77415C29.5153 7.30682 29.6697 7.93359 29.6697 8.65447C29.6697 9.37891 29.5135 10.0021 29.201 10.5241C28.8885 11.0426 28.4357 11.4403 27.8427 11.7173C27.2532 11.9943 26.5394 12.1328 25.7013 12.1328H22.8196V10.2791H25.3285C25.7688 10.2791 26.1346 10.2187 26.4258 10.098C26.717 9.97727 26.9336 9.79616 27.0756 9.55469C27.2212 9.31321 27.294 9.01314 27.294 8.65447C27.294 8.29226 27.2212 7.98686 27.0756 7.73828C26.9336 7.4897 26.7152 7.30149 26.4205 7.17365C26.1293 7.04226 25.7617 6.97656 25.3178 6.97656H23.7624V16H21.456ZM27.3473 11.0355L30.0586 16H27.5124L24.8597 11.0355H27.3473ZM34.1322 5.09091H36.7156L39.2032 9.78906H39.3097L41.7973 5.09091H44.3808L40.4017 12.1435V16H38.1112V12.1435L34.1322 5.09091ZM55.0062 10.5455C55.0062 11.7351 54.7807 12.7472 54.3297 13.5817C53.8823 14.4162 53.2715 15.0536 52.4973 15.494C51.7267 15.9308 50.8603 16.1491 49.8979 16.1491C48.9284 16.1491 48.0584 15.929 47.2878 15.4886C46.5172 15.0483 45.9082 14.4109 45.4608 13.5763C45.0133 12.7418 44.7896 11.7315 44.7896 10.5455C44.7896 9.35582 45.0133 8.34375 45.4608 7.50923C45.9082 6.67472 46.5172 6.03906 47.2878 5.60227C48.0584 5.16193 48.9284 4.94176 49.8979 4.94176C50.8603 4.94176 51.7267 5.16193 52.4973 5.60227C53.2715 6.03906 53.8823 6.67472 54.3297 7.50923C54.7807 8.34375 55.0062 9.35582 55.0062 10.5455ZM52.6678 10.5455C52.6678 9.77486 52.5524 9.125 52.3216 8.59588C52.0943 8.06676 51.7729 7.66548 51.3574 7.39205C50.9419 7.11861 50.4554 6.98189 49.8979 6.98189C49.3404 6.98189 48.8539 7.11861 48.4384 7.39205C48.0229 7.66548 47.6998 8.06676 47.4689 8.59588C47.2417 9.125 47.128 9.77486 47.128 10.5455C47.128 11.3161 47.2417 11.9659 47.4689 12.495C47.6998 13.0241 48.0229 13.4254 48.4384 13.6989C48.8539 13.9723 49.3404 14.109 49.8979 14.109C50.4554 14.109 50.9419 13.9723 51.3574 13.6989C51.7729 13.4254 52.0943 13.0241 52.3216 12.495C52.5524 11.9659 52.6678 11.3161 52.6678 10.5455ZM63.453 5.09091H65.7595V12.1754C65.7595 12.9709 65.5695 13.6669 65.1895 14.2635C64.8131 14.8601 64.2858 15.3253 63.6075 15.6591C62.9292 15.9893 62.1391 16.1545 61.2371 16.1545C60.3316 16.1545 59.5397 15.9893 58.8614 15.6591C58.1831 15.3253 57.6558 14.8601 57.2794 14.2635C56.903 13.6669 56.7148 12.9709 56.7148 12.1754V5.09091H59.0212V11.9783C59.0212 12.3938 59.1118 12.7631 59.2929 13.0863C59.4775 13.4094 59.7368 13.6634 60.0706 13.848C60.4044 14.0327 60.7932 14.125 61.2371 14.125C61.6846 14.125 62.0734 14.0327 62.4037 13.848C62.7375 13.6634 62.9949 13.4094 63.176 13.0863C63.3607 12.7631 63.453 12.3938 63.453 11.9783V5.09091ZM67.6571 16V5.09091H71.9611C72.785 5.09091 73.4881 5.23828 74.0705 5.53303C74.6564 5.82422 75.1021 6.23793 75.4075 6.77415C75.7164 7.30682 75.8709 7.93359 75.8709 8.65447C75.8709 9.37891 75.7147 10.0021 75.4022 10.5241C75.0897 11.0426 74.6369 11.4403 74.0439 11.7173C73.4544 11.9943 72.7406 12.1328 71.9025 12.1328H69.0208V10.2791H71.5297C71.97 10.2791 72.3358 10.2187 72.627 10.098C72.9181 9.97727 73.1348 9.79616 73.2768 9.55469C73.4224 9.31321 73.4952 9.01314 73.4952 8.65447C73.4952 8.29226 73.4224 7.98686 73.2768 7.73828C73.1348 7.4897 72.9164 7.30149 72.6216 7.17365C72.3304 7.04226 71.9629 6.97656 71.519 6.97656H69.9636V16H67.6571ZM73.5485 11.0355L76.2598 16H73.7136L71.0609 11.0355H73.5485ZM90.5979 8.91016H88.2648C88.2222 8.60831 88.1352 8.3402 88.0038 8.10582C87.8724 7.8679 87.7037 7.66548 87.4978 7.49858C87.2918 7.33168 87.0539 7.20383 86.784 7.11506C86.5177 7.02628 86.2282 6.98189 85.9157 6.98189C85.3511 6.98189 84.8593 7.12216 84.4403 7.4027C84.0212 7.67969 83.6963 8.08452 83.4655 8.61719C83.2346 9.14631 83.1192 9.78906 83.1192 10.5455C83.1192 11.3232 83.2346 11.9766 83.4655 12.5057C83.6998 13.0348 84.0265 13.4343 84.4456 13.7042C84.8646 13.9741 85.3493 14.109 85.8998 14.109C86.2087 14.109 86.4946 14.0682 86.7574 13.9865C87.0237 13.9048 87.2599 13.7859 87.4658 13.6296C87.6718 13.4698 87.8422 13.2763 87.9772 13.049C88.1157 12.8217 88.2116 12.5625 88.2648 12.2713L90.5979 12.282C90.5376 12.7827 90.3866 13.2656 90.1452 13.7308C89.9072 14.1925 89.5858 14.6062 89.181 14.9719C88.7797 15.3342 88.3003 15.6218 87.7428 15.8349C87.1888 16.0444 86.5621 16.1491 85.8625 16.1491C84.8895 16.1491 84.0194 15.929 83.2524 15.4886C82.4889 15.0483 81.8852 14.4109 81.4413 13.5763C81.001 12.7418 80.7808 11.7315 80.7808 10.5455C80.7808 9.35582 81.0045 8.34375 81.452 7.50923C81.8994 6.67472 82.5067 6.03906 83.2737 5.60227C84.0407 5.16193 84.9037 4.94176 85.8625 4.94176C86.4946 4.94176 87.0805 5.03054 87.6203 5.2081C88.1636 5.38565 88.6448 5.64489 89.0638 5.98579C89.4829 6.32315 89.8238 6.73686 90.0866 7.22692C90.3529 7.71697 90.5233 8.27805 90.5979 8.91016ZM93.9271 16H91.4555L95.2215 5.09091H98.1938L101.954 16H99.4829L96.7503 7.58381H96.665L93.9271 16ZM93.7726 11.712H99.6107V13.5124H93.7726V11.712ZM103.267 16V5.09091H107.571C108.395 5.09091 109.098 5.23828 109.681 5.53303C110.267 5.82422 110.712 6.23793 111.018 6.77415C111.327 7.30682 111.481 7.93359 111.481 8.65447C111.481 9.37891 111.325 10.0021 111.013 10.5241C110.7 11.0426 110.247 11.4403 109.654 11.7173C109.065 11.9943 108.351 12.1328 107.513 12.1328H104.631V10.2791H107.14C107.58 10.2791 107.946 10.2187 108.237 10.098C108.528 9.97727 108.745 9.79616 108.887 9.55469C109.033 9.31321 109.106 9.01314 109.106 8.65447C109.106 8.29226 109.033 7.98686 108.887 7.73828C108.745 7.4897 108.527 7.30149 108.232 7.17365C107.941 7.04226 107.573 6.97656 107.129 6.97656H105.574V16H103.267ZM109.159 11.0355L111.87 16H109.324L106.671 11.0355H109.159Z" fill="black"/>
<path d="M0.948153 16V5.09091H8.17116V6.99254H3.25462V9.59197H7.69176V11.4936H3.25462V16H0.948153ZM19.7474 10.5455C19.7474 11.7351 19.5219 12.7472 19.0709 13.5817C18.6235 14.4162 18.0127 15.0536 17.2385 15.494C16.468 15.9308 15.6015 16.1491 14.6391 16.1491C13.6697 16.1491 12.7996 15.929 12.029 15.4886C11.2584 15.0483 10.6494 14.4109 10.202 13.5763C9.75453 12.7418 9.53081 11.7315 9.53081 10.5455C9.53081 9.35582 9.75453 8.34375 10.202 7.50923C10.6494 6.67472 11.2584 6.03906 12.029 5.60227C12.7996 5.16193 13.6697 4.94176 14.6391 4.94176C15.6015 4.94176 16.468 5.16193 17.2385 5.60227C18.0127 6.03906 18.6235 6.67472 19.0709 7.50923C19.5219 8.34375 19.7474 9.35582 19.7474 10.5455ZM17.409 10.5455C17.409 9.77486 17.2936 9.125 17.0628 8.59588C16.8355 8.06676 16.5141 7.66548 16.0986 7.39205C15.6831 7.11861 15.1966 6.98189 14.6391 6.98189C14.0816 6.98189 13.5951 7.11861 13.1796 7.39205C12.7641 7.66548 12.441 8.06676 12.2101 8.59588C11.9829 9.125 11.8692 9.77486 11.8692 10.5455C11.8692 11.3161 11.9829 11.9659 12.2101 12.495C12.441 13.0241 12.7641 13.4254 13.1796 13.6989C13.5951 13.9723 14.0816 14.109 14.6391 14.109C15.1966 14.109 15.6831 13.9723 16.0986 13.6989C16.5141 13.4254 16.8355 13.0241 17.0628 12.495C17.2936 11.9659 17.409 11.3161 17.409 10.5455ZM21.456 16V5.09091H25.7599C26.5838 5.09091 27.2869 5.23828 27.8693 5.53303C28.4553 5.82422 28.9009 6.23793 29.2063 6.77415C29.5153 7.30682 29.6697 7.93359 29.6697 8.65447C29.6697 9.37891 29.5135 10.0021 29.201 10.5241C28.8885 11.0426 28.4357 11.4403 27.8427 11.7173C27.2532 11.9943 26.5394 12.1328 25.7013 12.1328H22.8196V10.2791H25.3285C25.7688 10.2791 26.1346 10.2187 26.4258 10.098C26.717 9.97727 26.9336 9.79616 27.0756 9.55469C27.2212 9.31321 27.294 9.01314 27.294 8.65447C27.294 8.29226 27.2212 7.98686 27.0756 7.73828C26.9336 7.4897 26.7152 7.30149 26.4205 7.17365C26.1293 7.04226 25.7617 6.97656 25.3178 6.97656H23.7624V16H21.456ZM27.3473 11.0355L30.0586 16H27.5124L24.8597 11.0355H27.3473ZM34.1322 5.09091H36.7156L39.2032 9.78906H39.3097L41.7973 5.09091H44.3808L40.4017 12.1435V16H38.1112V12.1435L34.1322 5.09091ZM55.0062 10.5455C55.0062 11.7351 54.7807 12.7472 54.3297 13.5817C53.8823 14.4162 53.2715 15.0536 52.4973 15.494C51.7267 15.9308 50.8603 16.1491 49.8979 16.1491C48.9284 16.1491 48.0584 15.929 47.2878 15.4886C46.5172 15.0483 45.9082 14.4109 45.4608 13.5763C45.0133 12.7418 44.7896 11.7315 44.7896 10.5455C44.7896 9.35582 45.0133 8.34375 45.4608 7.50923C45.9082 6.67472 46.5172 6.03906 47.2878 5.60227C48.0584 5.16193 48.9284 4.94176 49.8979 4.94176C50.8603 4.94176 51.7267 5.16193 52.4973 5.60227C53.2715 6.03906 53.8823 6.67472 54.3297 7.50923C54.7807 8.34375 55.0062 9.35582 55.0062 10.5455ZM52.6678 10.5455C52.6678 9.77486 52.5524 9.125 52.3216 8.59588C52.0943 8.06676 51.7729 7.66548 51.3574 7.39205C50.9419 7.11861 50.4554 6.98189 49.8979 6.98189C49.3404 6.98189 48.8539 7.11861 48.4384 7.39205C48.0229 7.66548 47.6998 8.06676 47.4689 8.59588C47.2417 9.125 47.128 9.77486 47.128 10.5455C47.128 11.3161 47.2417 11.9659 47.4689 12.495C47.6998 13.0241 48.0229 13.4254 48.4384 13.6989C48.8539 13.9723 49.3404 14.109 49.8979 14.109C50.4554 14.109 50.9419 13.9723 51.3574 13.6989C51.7729 13.4254 52.0943 13.0241 52.3216 12.495C52.5524 11.9659 52.6678 11.3161 52.6678 10.5455ZM63.453 5.09091H65.7595V12.1754C65.7595 12.9709 65.5695 13.6669 65.1895 14.2635C64.8131 14.8601 64.2858 15.3253 63.6075 15.6591C62.9292 15.9893 62.1391 16.1545 61.2371 16.1545C60.3316 16.1545 59.5397 15.9893 58.8614 15.6591C58.1831 15.3253 57.6558 14.8601 57.2794 14.2635C56.903 13.6669 56.7148 12.9709 56.7148 12.1754V5.09091H59.0212V11.9783C59.0212 12.3938 59.1118 12.7631 59.2929 13.0863C59.4775 13.4094 59.7368 13.6634 60.0706 13.848C60.4044 14.0327 60.7932 14.125 61.2371 14.125C61.6846 14.125 62.0734 14.0327 62.4037 13.848C62.7375 13.6634 62.9949 13.4094 63.176 13.0863C63.3607 12.7631 63.453 12.3938 63.453 11.9783V5.09091ZM67.6571 16V5.09091H71.9611C72.785 5.09091 73.4881 5.23828 74.0705 5.53303C74.6564 5.82422 75.1021 6.23793 75.4075 6.77415C75.7164 7.30682 75.8709 7.93359 75.8709 8.65447C75.8709 9.37891 75.7147 10.0021 75.4022 10.5241C75.0897 11.0426 74.6369 11.4403 74.0439 11.7173C73.4544 11.9943 72.7406 12.1328 71.9025 12.1328H69.0208V10.2791H71.5297C71.97 10.2791 72.3358 10.2187 72.627 10.098C72.9181 9.97727 73.1348 9.79616 73.2768 9.55469C73.4224 9.31321 73.4952 9.01314 73.4952 8.65447C73.4952 8.29226 73.4224 7.98686 73.2768 7.73828C73.1348 7.4897 72.9164 7.30149 72.6216 7.17365C72.3304 7.04226 71.9629 6.97656 71.519 6.97656H69.9636V16H67.6571ZM73.5485 11.0355L76.2598 16H73.7136L71.0609 11.0355H73.5485ZM90.5979 8.91016H88.2648C88.2222 8.60831 88.1352 8.3402 88.0038 8.10582C87.8724 7.8679 87.7037 7.66548 87.4978 7.49858C87.2918 7.33168 87.0539 7.20383 86.784 7.11506C86.5177 7.02628 86.2282 6.98189 85.9157 6.98189C85.3511 6.98189 84.8593 7.12216 84.4403 7.4027C84.0212 7.67969 83.6963 8.08452 83.4655 8.61719C83.2346 9.14631 83.1192 9.78906 83.1192 10.5455C83.1192 11.3232 83.2346 11.9766 83.4655 12.5057C83.6998 13.0348 84.0265 13.4343 84.4456 13.7042C84.8646 13.9741 85.3493 14.109 85.8998 14.109C86.2087 14.109 86.4946 14.0682 86.7574 13.9865C87.0237 13.9048 87.2599 13.7859 87.4658 13.6296C87.6718 13.4698 87.8422 13.2763 87.9772 13.049C88.1157 12.8217 88.2116 12.5625 88.2648 12.2713L90.5979 12.282C90.5376 12.7827 90.3866 13.2656 90.1452 13.7308C89.9072 14.1925 89.5858 14.6062 89.181 14.9719C88.7797 15.3342 88.3003 15.6218 87.7428 15.8349C87.1888 16.0444 86.5621 16.1491 85.8625 16.1491C84.8895 16.1491 84.0194 15.929 83.2524 15.4886C82.4889 15.0483 81.8852 14.4109 81.4413 13.5763C81.001 12.7418 80.7808 11.7315 80.7808 10.5455C80.7808 9.35582 81.0045 8.34375 81.452 7.50923C81.8994 6.67472 82.5067 6.03906 83.2737 5.60227C84.0407 5.16193 84.9037 4.94176 85.8625 4.94176C86.4946 4.94176 87.0805 5.03054 87.6203 5.2081C88.1636 5.38565 88.6448 5.64489 89.0638 5.98579C89.4829 6.32315 89.8238 6.73686 90.0866 7.22692C90.3529 7.71697 90.5233 8.27805 90.5979 8.91016ZM93.9271 16H91.4555L95.2215 5.09091H98.1938L101.954 16H99.4829L96.7503 7.58381H96.665L93.9271 16ZM93.7726 11.712H99.6107V13.5124H93.7726V11.712ZM103.267 16V5.09091H107.571C108.395 5.09091 109.098 5.23828 109.681 5.53303C110.267 5.82422 110.712 6.23793 111.018 6.77415C111.327 7.30682 111.481 7.93359 111.481 8.65447C111.481 9.37891 111.325 10.0021 111.013 10.5241C110.7 11.0426 110.247 11.4403 109.654 11.7173C109.065 11.9943 108.351 12.1328 107.513 12.1328H104.631V10.2791H107.14C107.58 10.2791 107.946 10.2187 108.237 10.098C108.528 9.97727 108.745 9.79616 108.887 9.55469C109.033 9.31321 109.106 9.01314 109.106 8.65447C109.106 8.29226 109.033 7.98686 108.887 7.73828C108.745 7.4897 108.527 7.30149 108.232 7.17365C107.941 7.04226 107.573 6.97656 107.129 6.97656H105.574V16H103.267ZM109.159 11.0355L111.87 16H109.324L106.671 11.0355H109.159Z" fill="black" fill-opacity="0.2"/>
<line y1="20" x2="114" y2="20" stroke="black" stroke-width="2"/>
<path d="M7.94815 37V26.0909H15.1712V27.9925H10.2546V30.592H14.6918V32.4936H10.2546V37H7.94815ZM26.7474 31.5455C26.7474 32.7351 26.5219 33.7472 26.0709 34.5817C25.6235 35.4162 25.0127 36.0536 24.2385 36.494C23.468 36.9308 22.6015 37.1491 21.6391 37.1491C20.6697 37.1491 19.7996 36.929 19.029 36.4886C18.2584 36.0483 17.6494 35.4109 17.202 34.5763C16.7545 33.7418 16.5308 32.7315 16.5308 31.5455C16.5308 30.3558 16.7545 29.3438 17.202 28.5092C17.6494 27.6747 18.2584 27.0391 19.029 26.6023C19.7996 26.1619 20.6697 25.9418 21.6391 25.9418C22.6015 25.9418 23.468 26.1619 24.2385 26.6023C25.0127 27.0391 25.6235 27.6747 26.0709 28.5092C26.5219 29.3438 26.7474 30.3558 26.7474 31.5455ZM24.409 31.5455C24.409 30.7749 24.2936 30.125 24.0628 29.5959C23.8355 29.0668 23.5141 28.6655 23.0986 28.392C22.6831 28.1186 22.1966 27.9819 21.6391 27.9819C21.0816 27.9819 20.5951 28.1186 20.1796 28.392C19.7641 28.6655 19.441 29.0668 19.2101 29.5959C18.9829 30.125 18.8692 30.7749 18.8692 31.5455C18.8692 32.3161 18.9829 32.9659 19.2101 33.495C19.441 34.0241 19.7641 34.4254 20.1796 34.6989C20.5951 34.9723 21.0816 35.109 21.6391 35.109C22.1966 35.109 22.6831 34.9723 23.0986 34.6989C23.5141 34.4254 23.8355 34.0241 24.0628 33.495C24.2936 32.9659 24.409 32.3161 24.409 31.5455ZM28.456 37V26.0909H32.7599C33.5838 26.0909 34.2869 26.2383 34.8693 26.533C35.4553 26.8242 35.9009 27.2379 36.2063 27.7741C36.5153 28.3068 36.6697 28.9336 36.6697 29.6545C36.6697 30.3789 36.5135 31.0021 36.201 31.5241C35.8885 32.0426 35.4357 32.4403 34.8427 32.7173C34.2532 32.9943 33.5394 33.1328 32.7013 33.1328H29.8196V31.2791H32.3285C32.7688 31.2791 33.1346 31.2187 33.4258 31.098C33.717 30.9773 33.9336 30.7962 34.0756 30.5547C34.2212 30.3132 34.294 30.0131 34.294 29.6545C34.294 29.2923 34.2212 28.9869 34.0756 28.7383C33.9336 28.4897 33.7152 28.3015 33.4205 28.1737C33.1293 28.0423 32.7617 27.9766 32.3178 27.9766H30.7624V37H28.456ZM34.3473 32.0355L37.0586 37H34.5124L31.8597 32.0355H34.3473ZM41.1322 26.0909H43.7156L46.2032 30.7891H46.3097L48.7973 26.0909H51.3808L47.4017 33.1435V37H45.1112V33.1435L41.1322 26.0909ZM62.0062 31.5455C62.0062 32.7351 61.7807 33.7472 61.3297 34.5817C60.8823 35.4162 60.2715 36.0536 59.4973 36.494C58.7267 36.9308 57.8603 37.1491 56.8979 37.1491C55.9284 37.1491 55.0584 36.929 54.2878 36.4886C53.5172 36.0483 52.9082 35.4109 52.4608 34.5763C52.0133 33.7418 51.7896 32.7315 51.7896 31.5455C51.7896 30.3558 52.0133 29.3438 52.4608 28.5092C52.9082 27.6747 53.5172 27.0391 54.2878 26.6023C55.0584 26.1619 55.9284 25.9418 56.8979 25.9418C57.8603 25.9418 58.7267 26.1619 59.4973 26.6023C60.2715 27.0391 60.8823 27.6747 61.3297 28.5092C61.7807 29.3438 62.0062 30.3558 62.0062 31.5455ZM59.6678 31.5455C59.6678 30.7749 59.5524 30.125 59.3216 29.5959C59.0943 29.0668 58.7729 28.6655 58.3574 28.392C57.9419 28.1186 57.4554 27.9819 56.8979 27.9819C56.3404 27.9819 55.8539 28.1186 55.4384 28.392C55.0229 28.6655 54.6998 29.0668 54.4689 29.5959C54.2417 30.125 54.128 30.7749 54.128 31.5455C54.128 32.3161 54.2417 32.9659 54.4689 33.495C54.6998 34.0241 55.0229 34.4254 55.4384 34.6989C55.8539 34.9723 56.3404 35.109 56.8979 35.109C57.4554 35.109 57.9419 34.9723 58.3574 34.6989C58.7729 34.4254 59.0943 34.0241 59.3216 33.495C59.5524 32.9659 59.6678 32.3161 59.6678 31.5455ZM70.453 26.0909H72.7595V33.1754C72.7595 33.9709 72.5695 34.6669 72.1895 35.2635C71.8131 35.8601 71.2858 36.3253 70.6075 36.6591C69.9292 36.9893 69.1391 37.1545 68.2371 37.1545C67.3316 37.1545 66.5397 36.9893 65.8614 36.6591C65.1831 36.3253 64.6558 35.8601 64.2794 35.2635C63.903 34.6669 63.7148 33.9709 63.7148 33.1754V26.0909H66.0212V32.9783C66.0212 33.3938 66.1118 33.7631 66.2929 34.0863C66.4775 34.4094 66.7368 34.6634 67.0706 34.848C67.4044 35.0327 67.7932 35.125 68.2371 35.125C68.6846 35.125 69.0734 35.0327 69.4037 34.848C69.7375 34.6634 69.9949 34.4094 70.176 34.0863C70.3607 33.7631 70.453 33.3938 70.453 32.9783V26.0909ZM74.6571 37V26.0909H78.9611C79.785 26.0909 80.4881 26.2383 81.0705 26.533C81.6564 26.8242 82.1021 27.2379 82.4075 27.7741C82.7164 28.3068 82.8709 28.9336 82.8709 29.6545C82.8709 30.3789 82.7147 31.0021 82.4022 31.5241C82.0897 32.0426 81.6369 32.4403 81.0439 32.7173C80.4544 32.9943 79.7406 33.1328 78.9025 33.1328H76.0208V31.2791H78.5297C78.97 31.2791 79.3358 31.2187 79.627 31.098C79.9181 30.9773 80.1348 30.7962 80.2768 30.5547C80.4224 30.3132 80.4952 30.0131 80.4952 29.6545C80.4952 29.2923 80.4224 28.9869 80.2768 28.7383C80.1348 28.4897 79.9164 28.3015 79.6216 28.1737C79.3304 28.0423 78.9629 27.9766 78.519 27.9766H76.9636V37H74.6571ZM80.5485 32.0355L83.2598 37H80.7136L78.0609 32.0355H80.5485ZM97.5979 29.9102H95.2648C95.2222 29.6083 95.1352 29.3402 95.0038 29.1058C94.8724 28.8679 94.7037 28.6655 94.4978 28.4986C94.2918 28.3317 94.0539 28.2038 93.784 28.1151C93.5177 28.0263 93.2282 27.9819 92.9157 27.9819C92.3511 27.9819 91.8593 28.1222 91.4403 28.4027C91.0212 28.6797 90.6963 29.0845 90.4655 29.6172C90.2346 30.1463 90.1192 30.7891 90.1192 31.5455C90.1192 32.3232 90.2346 32.9766 90.4655 33.5057C90.6998 34.0348 91.0265 34.4343 91.4456 34.7042C91.8646 34.9741 92.3493 35.109 92.8998 35.109C93.2087 35.109 93.4946 35.0682 93.7574 34.9865C94.0237 34.9048 94.2599 34.7859 94.4658 34.6296C94.6718 34.4698 94.8422 34.2763 94.9772 34.049C95.1157 33.8217 95.2116 33.5625 95.2648 33.2713L97.5979 33.282C97.5376 33.7827 97.3866 34.2656 97.1452 34.7308C96.9072 35.1925 96.5858 35.6062 96.181 35.9719C95.7797 36.3342 95.3003 36.6218 94.7428 36.8349C94.1888 37.0444 93.5621 37.1491 92.8625 37.1491C91.8895 37.1491 91.0194 36.929 90.2524 36.4886C89.4889 36.0483 88.8852 35.4109 88.4413 34.5763C88.001 33.7418 87.7808 32.7315 87.7808 31.5455C87.7808 30.3558 88.0045 29.3438 88.452 28.5092C88.8994 27.6747 89.5067 27.0391 90.2737 26.6023C91.0407 26.1619 91.9037 25.9418 92.8625 25.9418C93.4946 25.9418 94.0805 26.0305 94.6203 26.2081C95.1636 26.3857 95.6448 26.6449 96.0638 26.9858C96.4829 27.3232 96.8238 27.7369 97.0866 28.2269C97.3529 28.717 97.5233 29.2781 97.5979 29.9102ZM100.927 37H98.4555L102.222 26.0909H105.194L108.954 37H106.483L103.75 28.5838H103.665L100.927 37ZM100.773 32.712H106.611V34.5124H100.773V32.712ZM110.267 37V26.0909H114.571C115.395 26.0909 116.098 26.2383 116.681 26.533C117.267 26.8242 117.712 27.2379 118.018 27.7741C118.327 28.3068 118.481 28.9336 118.481 29.6545C118.481 30.3789 118.325 31.0021 118.013 31.5241C117.7 32.0426 117.247 32.4403 116.654 32.7173C116.065 32.9943 115.351 33.1328 114.513 33.1328H111.631V31.2791H114.14C114.58 31.2791 114.946 31.2187 115.237 31.098C115.528 30.9773 115.745 30.7962 115.887 30.5547C116.033 30.3132 116.106 30.0131 116.106 29.6545C116.106 29.2923 116.033 28.9869 115.887 28.7383C115.745 28.4897 115.527 28.3015 115.232 28.1737C114.941 28.0423 114.573 27.9766 114.129 27.9766H112.574V37H110.267ZM116.159 32.0355L118.87 37H116.324L113.671 32.0355H116.159Z" fill="black"/>
<path d="M7.94815 37V26.0909H15.1712V27.9925H10.2546V30.592H14.6918V32.4936H10.2546V37H7.94815ZM26.7474 31.5455C26.7474 32.7351 26.5219 33.7472 26.0709 34.5817C25.6235 35.4162 25.0127 36.0536 24.2385 36.494C23.468 36.9308 22.6015 37.1491 21.6391 37.1491C20.6697 37.1491 19.7996 36.929 19.029 36.4886C18.2584 36.0483 17.6494 35.4109 17.202 34.5763C16.7545 33.7418 16.5308 32.7315 16.5308 31.5455C16.5308 30.3558 16.7545 29.3438 17.202 28.5092C17.6494 27.6747 18.2584 27.0391 19.029 26.6023C19.7996 26.1619 20.6697 25.9418 21.6391 25.9418C22.6015 25.9418 23.468 26.1619 24.2385 26.6023C25.0127 27.0391 25.6235 27.6747 26.0709 28.5092C26.5219 29.3438 26.7474 30.3558 26.7474 31.5455ZM24.409 31.5455C24.409 30.7749 24.2936 30.125 24.0628 29.5959C23.8355 29.0668 23.5141 28.6655 23.0986 28.392C22.6831 28.1186 22.1966 27.9819 21.6391 27.9819C21.0816 27.9819 20.5951 28.1186 20.1796 28.392C19.7641 28.6655 19.441 29.0668 19.2101 29.5959C18.9829 30.125 18.8692 30.7749 18.8692 31.5455C18.8692 32.3161 18.9829 32.9659 19.2101 33.495C19.441 34.0241 19.7641 34.4254 20.1796 34.6989C20.5951 34.9723 21.0816 35.109 21.6391 35.109C22.1966 35.109 22.6831 34.9723 23.0986 34.6989C23.5141 34.4254 23.8355 34.0241 24.0628 33.495C24.2936 32.9659 24.409 32.3161 24.409 31.5455ZM28.456 37V26.0909H32.7599C33.5838 26.0909 34.2869 26.2383 34.8693 26.533C35.4553 26.8242 35.9009 27.2379 36.2063 27.7741C36.5153 28.3068 36.6697 28.9336 36.6697 29.6545C36.6697 30.3789 36.5135 31.0021 36.201 31.5241C35.8885 32.0426 35.4357 32.4403 34.8427 32.7173C34.2532 32.9943 33.5394 33.1328 32.7013 33.1328H29.8196V31.2791H32.3285C32.7688 31.2791 33.1346 31.2187 33.4258 31.098C33.717 30.9773 33.9336 30.7962 34.0756 30.5547C34.2212 30.3132 34.294 30.0131 34.294 29.6545C34.294 29.2923 34.2212 28.9869 34.0756 28.7383C33.9336 28.4897 33.7152 28.3015 33.4205 28.1737C33.1293 28.0423 32.7617 27.9766 32.3178 27.9766H30.7624V37H28.456ZM34.3473 32.0355L37.0586 37H34.5124L31.8597 32.0355H34.3473ZM41.1322 26.0909H43.7156L46.2032 30.7891H46.3097L48.7973 26.0909H51.3808L47.4017 33.1435V37H45.1112V33.1435L41.1322 26.0909ZM62.0062 31.5455C62.0062 32.7351 61.7807 33.7472 61.3297 34.5817C60.8823 35.4162 60.2715 36.0536 59.4973 36.494C58.7267 36.9308 57.8603 37.1491 56.8979 37.1491C55.9284 37.1491 55.0584 36.929 54.2878 36.4886C53.5172 36.0483 52.9082 35.4109 52.4608 34.5763C52.0133 33.7418 51.7896 32.7315 51.7896 31.5455C51.7896 30.3558 52.0133 29.3438 52.4608 28.5092C52.9082 27.6747 53.5172 27.0391 54.2878 26.6023C55.0584 26.1619 55.9284 25.9418 56.8979 25.9418C57.8603 25.9418 58.7267 26.1619 59.4973 26.6023C60.2715 27.0391 60.8823 27.6747 61.3297 28.5092C61.7807 29.3438 62.0062 30.3558 62.0062 31.5455ZM59.6678 31.5455C59.6678 30.7749 59.5524 30.125 59.3216 29.5959C59.0943 29.0668 58.7729 28.6655 58.3574 28.392C57.9419 28.1186 57.4554 27.9819 56.8979 27.9819C56.3404 27.9819 55.8539 28.1186 55.4384 28.392C55.0229 28.6655 54.6998 29.0668 54.4689 29.5959C54.2417 30.125 54.128 30.7749 54.128 31.5455C54.128 32.3161 54.2417 32.9659 54.4689 33.495C54.6998 34.0241 55.0229 34.4254 55.4384 34.6989C55.8539 34.9723 56.3404 35.109 56.8979 35.109C57.4554 35.109 57.9419 34.9723 58.3574 34.6989C58.7729 34.4254 59.0943 34.0241 59.3216 33.495C59.5524 32.9659 59.6678 32.3161 59.6678 31.5455ZM70.453 26.0909H72.7595V33.1754C72.7595 33.9709 72.5695 34.6669 72.1895 35.2635C71.8131 35.8601 71.2858 36.3253 70.6075 36.6591C69.9292 36.9893 69.1391 37.1545 68.2371 37.1545C67.3316 37.1545 66.5397 36.9893 65.8614 36.6591C65.1831 36.3253 64.6558 35.8601 64.2794 35.2635C63.903 34.6669 63.7148 33.9709 63.7148 33.1754V26.0909H66.0212V32.9783C66.0212 33.3938 66.1118 33.7631 66.2929 34.0863C66.4775 34.4094 66.7368 34.6634 67.0706 34.848C67.4044 35.0327 67.7932 35.125 68.2371 35.125C68.6846 35.125 69.0734 35.0327 69.4037 34.848C69.7375 34.6634 69.9949 34.4094 70.176 34.0863C70.3607 33.7631 70.453 33.3938 70.453 32.9783V26.0909ZM74.6571 37V26.0909H78.9611C79.785 26.0909 80.4881 26.2383 81.0705 26.533C81.6564 26.8242 82.1021 27.2379 82.4075 27.7741C82.7164 28.3068 82.8709 28.9336 82.8709 29.6545C82.8709 30.3789 82.7147 31.0021 82.4022 31.5241C82.0897 32.0426 81.6369 32.4403 81.0439 32.7173C80.4544 32.9943 79.7406 33.1328 78.9025 33.1328H76.0208V31.2791H78.5297C78.97 31.2791 79.3358 31.2187 79.627 31.098C79.9181 30.9773 80.1348 30.7962 80.2768 30.5547C80.4224 30.3132 80.4952 30.0131 80.4952 29.6545C80.4952 29.2923 80.4224 28.9869 80.2768 28.7383C80.1348 28.4897 79.9164 28.3015 79.6216 28.1737C79.3304 28.0423 78.9629 27.9766 78.519 27.9766H76.9636V37H74.6571ZM80.5485 32.0355L83.2598 37H80.7136L78.0609 32.0355H80.5485ZM97.5979 29.9102H95.2648C95.2222 29.6083 95.1352 29.3402 95.0038 29.1058C94.8724 28.8679 94.7037 28.6655 94.4978 28.4986C94.2918 28.3317 94.0539 28.2038 93.784 28.1151C93.5177 28.0263 93.2282 27.9819 92.9157 27.9819C92.3511 27.9819 91.8593 28.1222 91.4403 28.4027C91.0212 28.6797 90.6963 29.0845 90.4655 29.6172C90.2346 30.1463 90.1192 30.7891 90.1192 31.5455C90.1192 32.3232 90.2346 32.9766 90.4655 33.5057C90.6998 34.0348 91.0265 34.4343 91.4456 34.7042C91.8646 34.9741 92.3493 35.109 92.8998 35.109C93.2087 35.109 93.4946 35.0682 93.7574 34.9865C94.0237 34.9048 94.2599 34.7859 94.4658 34.6296C94.6718 34.4698 94.8422 34.2763 94.9772 34.049C95.1157 33.8217 95.2116 33.5625 95.2648 33.2713L97.5979 33.282C97.5376 33.7827 97.3866 34.2656 97.1452 34.7308C96.9072 35.1925 96.5858 35.6062 96.181 35.9719C95.7797 36.3342 95.3003 36.6218 94.7428 36.8349C94.1888 37.0444 93.5621 37.1491 92.8625 37.1491C91.8895 37.1491 91.0194 36.929 90.2524 36.4886C89.4889 36.0483 88.8852 35.4109 88.4413 34.5763C88.001 33.7418 87.7808 32.7315 87.7808 31.5455C87.7808 30.3558 88.0045 29.3438 88.452 28.5092C88.8994 27.6747 89.5067 27.0391 90.2737 26.6023C91.0407 26.1619 91.9037 25.9418 92.8625 25.9418C93.4946 25.9418 94.0805 26.0305 94.6203 26.2081C95.1636 26.3857 95.6448 26.6449 96.0638 26.9858C96.4829 27.3232 96.8238 27.7369 97.0866 28.2269C97.3529 28.717 97.5233 29.2781 97.5979 29.9102ZM100.927 37H98.4555L102.222 26.0909H105.194L108.954 37H106.483L103.75 28.5838H103.665L100.927 37ZM100.773 32.712H106.611V34.5124H100.773V32.712ZM110.267 37V26.0909H114.571C115.395 26.0909 116.098 26.2383 116.681 26.533C117.267 26.8242 117.712 27.2379 118.018 27.7741C118.327 28.3068 118.481 28.9336 118.481 29.6545C118.481 30.3789 118.325 31.0021 118.013 31.5241C117.7 32.0426 117.247 32.4403 116.654 32.7173C116.065 32.9943 115.351 33.1328 114.513 33.1328H111.631V31.2791H114.14C114.58 31.2791 114.946 31.2187 115.237 31.098C115.528 30.9773 115.745 30.7962 115.887 30.5547C116.033 30.3132 116.106 30.0131 116.106 29.6545C116.106 29.2923 116.033 28.9869 115.887 28.7383C115.745 28.4897 115.527 28.3015 115.232 28.1737C114.941 28.0423 114.573 27.9766 114.129 27.9766H112.574V37H110.267ZM116.159 32.0355L118.87 37H116.324L113.671 32.0355H116.159Z" fill="black" fill-opacity="0.2"/>
<line x1="7" y1="41" x2="121" y2="41" stroke="black" stroke-width="2"/>
</svg>
