<svg>
    <symbol id="icon-logo-forYourCar" width="121" height="42" viewBox="0 0 121 42" fill="none"
        xmlns="http://www.w3.org/2000/svg">
        <path
            d="M0.948153 16V5.09091H8.17116V6.99254H3.25462V9.59197H7.69176V11.4936H3.25462V16H0.948153ZM19.7474 10.5455C19.7474 11.7351 19.5219 12.7472 19.0709 13.5817C18.6235 14.4162 18.0127 15.0536 17.2385 15.494C16.468 15.9308 15.6015 16.1491 14.6391 16.1491C13.6697 16.1491 12.7996 15.929 12.029 15.4886C11.2584 15.0483 10.6494 14.4109 10.202 13.5763C9.75453 12.7418 9.53081 11.7315 9.53081 10.5455C9.53081 9.35582 9.75453 8.34375 10.202 7.50923C10.6494 6.67472 11.2584 6.03906 12.029 5.60227C12.7996 5.16193 13.6697 4.94176 14.6391 4.94176C15.6015 4.94176 16.468 5.16193 17.2385 5.60227C18.0127 6.03906 18.6235 6.67472 19.0709 7.50923C19.5219 8.34375 19.7474 9.35582 19.7474 10.5455ZM17.409 10.5455C17.409 9.77486 17.2936 9.125 17.0628 8.59588C16.8355 8.06676 16.5141 7.66548 16.0986 7.39205C15.6831 7.11861 15.1966 6.98189 14.6391 6.98189C14.0816 6.98189 13.5951 7.11861 13.1796 7.39205C12.7641 7.66548 12.441 8.06676 12.2101 8.59588C11.9829 9.125 11.8692 9.77486 11.8692 10.5455C11.8692 11.3161 11.9829 11.9659 12.2101 12.495C12.441 13.0241 12.7641 13.4254 13.1796 13.6989C13.5951 13.9723 14.0816 14.109 14.6391 14.109C15.1966 14.109 15.6831 13.9723 16.0986 13.6989C16.5141 13.4254 16.8355 13.0241 17.0628 12.495C17.2936 11.9659 17.409 11.3161 17.409 10.5455ZM21.456 16V5.09091H25.7599C26.5838 5.09091 27.2869 5.23828 27.8693 5.53303C28.4553 5.82422 28.9009 6.23793 29.2063 6.77415C29.5153 7.30682 29.6697 7.93359 29.6697 8.65447C29.6697 9.37891 29.5135 10.0021 29.201 10.5241C28.8885 11.0426 28.4357 11.4403 27.8427 11.7173C27.2532 11.9943 26.5394 12.1328 25.7013 12.1328H22.8196V10.2791H25.3285C25.7688 10.2791 26.1346 10.2187 26.4258 10.098C26.717 9.97727 26.9336 9.79616 27.0756 9.55469C27.2212 9.31321 27.294 9.01314 27.294 8.65447C27.294 8.29226 27.2212 7.98686 27.0756 7.73828C26.9336 7.4897 26.7152 7.30149 26.4205 7.17365C26.1293 7.04226 25.7617 6.97656 25.3178 6.97656H23.7624V16H21.456ZM27.3473 11.0355L30.0586 16H27.5124L24.8597 11.0355H27.3473ZM34.1322 5.09091H36.7156L39.2032 9.78906H39.3097L41.7973 5.09091H44.3808L40.4017 12.1435V16H38.1112V12.1435L34.1322 5.09091ZM55.0062 10.5455C55.0062 11.7351 54.7807 12.7472 54.3297 13.5817C53.8823 14.4162 53.2715 15.0536 52.4973 15.494C51.7267 15.9308 50.8603 16.1491 49.8979 16.1491C48.9284 16.1491 48.0584 15.929 47.2878 15.4886C46.5172 15.0483 45.9082 14.4109 45.4608 13.5763C45.0133 12.7418 44.7896 11.7315 44.7896 10.5455C44.7896 9.35582 45.0133 8.34375 45.4608 7.50923C45.9082 6.67472 46.5172 6.03906 47.2878 5.60227C48.0584 5.16193 48.9284 4.94176 49.8979 4.94176C50.8603 4.94176 51.7267 5.16193 52.4973 5.60227C53.2715 6.03906 53.8823 6.67472 54.3297 7.50923C54.7807 8.34375 55.0062 9.35582 55.0062 10.5455ZM52.6678 10.5455C52.6678 9.77486 52.5524 9.125 52.3216 8.59588C52.0943 8.06676 51.7729 7.66548 51.3574 7.39205C50.9419 7.11861 50.4554 6.98189 49.8979 6.98189C49.3404 6.98189 48.8539 7.11861 48.4384 7.39205C48.0229 7.66548 47.6998 8.06676 47.4689 8.59588C47.2417 9.125 47.128 9.77486 47.128 10.5455C47.128 11.3161 47.2417 11.9659 47.4689 12.495C47.6998 13.0241 48.0229 13.4254 48.4384 13.6989C48.8539 13.9723 49.3404 14.109 49.8979 14.109C50.4554 14.109 50.9419 13.9723 51.3574 13.6989C51.7729 13.4254 52.0943 13.0241 52.3216 12.495C52.5524 11.9659 52.6678 11.3161 52.6678 10.5455ZM63.453 5.09091H65.7595V12.1754C65.7595 12.9709 65.5695 13.6669 65.1895 14.2635C64.8131 14.8601 64.2858 15.3253 63.6075 15.6591C62.9292 15.9893 62.1391 16.1545 61.2371 16.1545C60.3316 16.1545 59.5397 15.9893 58.8614 15.6591C58.1831 15.3253 57.6558 14.8601 57.2794 14.2635C56.903 13.6669 56.7148 12.9709 56.7148 12.1754V5.09091H59.0212V11.9783C59.0212 12.3938 59.1118 12.7631 59.2929 13.0863C59.4775 13.4094 59.7368 13.6634 60.0706 13.848C60.4044 14.0327 60.7932 14.125 61.2371 14.125C61.6846 14.125 62.0734 14.0327 62.4037 13.848C62.7375 13.6634 62.9949 13.4094 63.176 13.0863C63.3607 12.7631 63.453 12.3938 63.453 11.9783V5.09091ZM67.6571 16V5.09091H71.9611C72.785 5.09091 73.4881 5.23828 74.0705 5.53303C74.6564 5.82422 75.1021 6.23793 75.4075 6.77415C75.7164 7.30682 75.8709 7.93359 75.8709 8.65447C75.8709 9.37891 75.7147 10.0021 75.4022 10.5241C75.0897 11.0426 74.6369 11.4403 74.0439 11.7173C73.4544 11.9943 72.7406 12.1328 71.9025 12.1328H69.0208V10.2791H71.5297C71.97 10.2791 72.3358 10.2187 72.627 10.098C72.9181 9.97727 73.1348 9.79616 73.2768 9.55469C73.4224 9.31321 73.4952 9.01314 73.4952 8.65447C73.4952 8.29226 73.4224 7.98686 73.2768 7.73828C73.1348 7.4897 72.9164 7.30149 72.6216 7.17365C72.3304 7.04226 71.9629 6.97656 71.519 6.97656H69.9636V16H67.6571ZM73.5485 11.0355L76.2598 16H73.7136L71.0609 11.0355H73.5485ZM90.5979 8.91016H88.2648C88.2222 8.60831 88.1352 8.3402 88.0038 8.10582C87.8724 7.8679 87.7037 7.66548 87.4978 7.49858C87.2918 7.33168 87.0539 7.20383 86.784 7.11506C86.5177 7.02628 86.2282 6.98189 85.9157 6.98189C85.3511 6.98189 84.8593 7.12216 84.4403 7.4027C84.0212 7.67969 83.6963 8.08452 83.4655 8.61719C83.2346 9.14631 83.1192 9.78906 83.1192 10.5455C83.1192 11.3232 83.2346 11.9766 83.4655 12.5057C83.6998 13.0348 84.0265 13.4343 84.4456 13.7042C84.8646 13.9741 85.3493 14.109 85.8998 14.109C86.2087 14.109 86.4946 14.0682 86.7574 13.9865C87.0237 13.9048 87.2599 13.7859 87.4658 13.6296C87.6718 13.4698 87.8422 13.2763 87.9772 13.049C88.1157 12.8217 88.2116 12.5625 88.2648 12.2713L90.5979 12.282C90.5376 12.7827 90.3866 13.2656 90.1452 13.7308C89.9072 14.1925 89.5858 14.6062 89.181 14.9719C88.7797 15.3342 88.3003 15.6218 87.7428 15.8349C87.1888 16.0444 86.5621 16.1491 85.8625 16.1491C84.8895 16.1491 84.0194 15.929 83.2524 15.4886C82.4889 15.0483 81.8852 14.4109 81.4413 13.5763C81.001 12.7418 80.7808 11.7315 80.7808 10.5455C80.7808 9.35582 81.0045 8.34375 81.452 7.50923C81.8994 6.67472 82.5067 6.03906 83.2737 5.60227C84.0407 5.16193 84.9037 4.94176 85.8625 4.94176C86.4946 4.94176 87.0805 5.03054 87.6203 5.2081C88.1636 5.38565 88.6448 5.64489 89.0638 5.98579C89.4829 6.32315 89.8238 6.73686 90.0866 7.22692C90.3529 7.71697 90.5233 8.27805 90.5979 8.91016ZM93.9271 16H91.4555L95.2215 5.09091H98.1938L101.954 16H99.4829L96.7503 7.58381H96.665L93.9271 16ZM93.7726 11.712H99.6107V13.5124H93.7726V11.712ZM103.267 16V5.09091H107.571C108.395 5.09091 109.098 5.23828 109.681 5.53303C110.267 5.82422 110.712 6.23793 111.018 6.77415C111.327 7.30682 111.481 7.93359 111.481 8.65447C111.481 9.37891 111.325 10.0021 111.013 10.5241C110.7 11.0426 110.247 11.4403 109.654 11.7173C109.065 11.9943 108.351 12.1328 107.513 12.1328H104.631V10.2791H107.14C107.58 10.2791 107.946 10.2187 108.237 10.098C108.528 9.97727 108.745 9.79616 108.887 9.55469C109.033 9.31321 109.106 9.01314 109.106 8.65447C109.106 8.29226 109.033 7.98686 108.887 7.73828C108.745 7.4897 108.527 7.30149 108.232 7.17365C107.941 7.04226 107.573 6.97656 107.129 6.97656H105.574V16H103.267ZM109.159 11.0355L111.87 16H109.324L106.671 11.0355H109.159Z"
            fill="currentColor" />
        <path
            d="M0.948153 16V5.09091H8.17116V6.99254H3.25462V9.59197H7.69176V11.4936H3.25462V16H0.948153ZM19.7474 10.5455C19.7474 11.7351 19.5219 12.7472 19.0709 13.5817C18.6235 14.4162 18.0127 15.0536 17.2385 15.494C16.468 15.9308 15.6015 16.1491 14.6391 16.1491C13.6697 16.1491 12.7996 15.929 12.029 15.4886C11.2584 15.0483 10.6494 14.4109 10.202 13.5763C9.75453 12.7418 9.53081 11.7315 9.53081 10.5455C9.53081 9.35582 9.75453 8.34375 10.202 7.50923C10.6494 6.67472 11.2584 6.03906 12.029 5.60227C12.7996 5.16193 13.6697 4.94176 14.6391 4.94176C15.6015 4.94176 16.468 5.16193 17.2385 5.60227C18.0127 6.03906 18.6235 6.67472 19.0709 7.50923C19.5219 8.34375 19.7474 9.35582 19.7474 10.5455ZM17.409 10.5455C17.409 9.77486 17.2936 9.125 17.0628 8.59588C16.8355 8.06676 16.5141 7.66548 16.0986 7.39205C15.6831 7.11861 15.1966 6.98189 14.6391 6.98189C14.0816 6.98189 13.5951 7.11861 13.1796 7.39205C12.7641 7.66548 12.441 8.06676 12.2101 8.59588C11.9829 9.125 11.8692 9.77486 11.8692 10.5455C11.8692 11.3161 11.9829 11.9659 12.2101 12.495C12.441 13.0241 12.7641 13.4254 13.1796 13.6989C13.5951 13.9723 14.0816 14.109 14.6391 14.109C15.1966 14.109 15.6831 13.9723 16.0986 13.6989C16.5141 13.4254 16.8355 13.0241 17.0628 12.495C17.2936 11.9659 17.409 11.3161 17.409 10.5455ZM21.456 16V5.09091H25.7599C26.5838 5.09091 27.2869 5.23828 27.8693 5.53303C28.4553 5.82422 28.9009 6.23793 29.2063 6.77415C29.5153 7.30682 29.6697 7.93359 29.6697 8.65447C29.6697 9.37891 29.5135 10.0021 29.201 10.5241C28.8885 11.0426 28.4357 11.4403 27.8427 11.7173C27.2532 11.9943 26.5394 12.1328 25.7013 12.1328H22.8196V10.2791H25.3285C25.7688 10.2791 26.1346 10.2187 26.4258 10.098C26.717 9.97727 26.9336 9.79616 27.0756 9.55469C27.2212 9.31321 27.294 9.01314 27.294 8.65447C27.294 8.29226 27.2212 7.98686 27.0756 7.73828C26.9336 7.4897 26.7152 7.30149 26.4205 7.17365C26.1293 7.04226 25.7617 6.97656 25.3178 6.97656H23.7624V16H21.456ZM27.3473 11.0355L30.0586 16H27.5124L24.8597 11.0355H27.3473ZM34.1322 5.09091H36.7156L39.2032 9.78906H39.3097L41.7973 5.09091H44.3808L40.4017 12.1435V16H38.1112V12.1435L34.1322 5.09091ZM55.0062 10.5455C55.0062 11.7351 54.7807 12.7472 54.3297 13.5817C53.8823 14.4162 53.2715 15.0536 52.4973 15.494C51.7267 15.9308 50.8603 16.1491 49.8979 16.1491C48.9284 16.1491 48.0584 15.929 47.2878 15.4886C46.5172 15.0483 45.9082 14.4109 45.4608 13.5763C45.0133 12.7418 44.7896 11.7315 44.7896 10.5455C44.7896 9.35582 45.0133 8.34375 45.4608 7.50923C45.9082 6.67472 46.5172 6.03906 47.2878 5.60227C48.0584 5.16193 48.9284 4.94176 49.8979 4.94176C50.8603 4.94176 51.7267 5.16193 52.4973 5.60227C53.2715 6.03906 53.8823 6.67472 54.3297 7.50923C54.7807 8.34375 55.0062 9.35582 55.0062 10.5455ZM52.6678 10.5455C52.6678 9.77486 52.5524 9.125 52.3216 8.59588C52.0943 8.06676 51.7729 7.66548 51.3574 7.39205C50.9419 7.11861 50.4554 6.98189 49.8979 6.98189C49.3404 6.98189 48.8539 7.11861 48.4384 7.39205C48.0229 7.66548 47.6998 8.06676 47.4689 8.59588C47.2417 9.125 47.128 9.77486 47.128 10.5455C47.128 11.3161 47.2417 11.9659 47.4689 12.495C47.6998 13.0241 48.0229 13.4254 48.4384 13.6989C48.8539 13.9723 49.3404 14.109 49.8979 14.109C50.4554 14.109 50.9419 13.9723 51.3574 13.6989C51.7729 13.4254 52.0943 13.0241 52.3216 12.495C52.5524 11.9659 52.6678 11.3161 52.6678 10.5455ZM63.453 5.09091H65.7595V12.1754C65.7595 12.9709 65.5695 13.6669 65.1895 14.2635C64.8131 14.8601 64.2858 15.3253 63.6075 15.6591C62.9292 15.9893 62.1391 16.1545 61.2371 16.1545C60.3316 16.1545 59.5397 15.9893 58.8614 15.6591C58.1831 15.3253 57.6558 14.8601 57.2794 14.2635C56.903 13.6669 56.7148 12.9709 56.7148 12.1754V5.09091H59.0212V11.9783C59.0212 12.3938 59.1118 12.7631 59.2929 13.0863C59.4775 13.4094 59.7368 13.6634 60.0706 13.848C60.4044 14.0327 60.7932 14.125 61.2371 14.125C61.6846 14.125 62.0734 14.0327 62.4037 13.848C62.7375 13.6634 62.9949 13.4094 63.176 13.0863C63.3607 12.7631 63.453 12.3938 63.453 11.9783V5.09091ZM67.6571 16V5.09091H71.9611C72.785 5.09091 73.4881 5.23828 74.0705 5.53303C74.6564 5.82422 75.1021 6.23793 75.4075 6.77415C75.7164 7.30682 75.8709 7.93359 75.8709 8.65447C75.8709 9.37891 75.7147 10.0021 75.4022 10.5241C75.0897 11.0426 74.6369 11.4403 74.0439 11.7173C73.4544 11.9943 72.7406 12.1328 71.9025 12.1328H69.0208V10.2791H71.5297C71.97 10.2791 72.3358 10.2187 72.627 10.098C72.9181 9.97727 73.1348 9.79616 73.2768 9.55469C73.4224 9.31321 73.4952 9.01314 73.4952 8.65447C73.4952 8.29226 73.4224 7.98686 73.2768 7.73828C73.1348 7.4897 72.9164 7.30149 72.6216 7.17365C72.3304 7.04226 71.9629 6.97656 71.519 6.97656H69.9636V16H67.6571ZM73.5485 11.0355L76.2598 16H73.7136L71.0609 11.0355H73.5485ZM90.5979 8.91016H88.2648C88.2222 8.60831 88.1352 8.3402 88.0038 8.10582C87.8724 7.8679 87.7037 7.66548 87.4978 7.49858C87.2918 7.33168 87.0539 7.20383 86.784 7.11506C86.5177 7.02628 86.2282 6.98189 85.9157 6.98189C85.3511 6.98189 84.8593 7.12216 84.4403 7.4027C84.0212 7.67969 83.6963 8.08452 83.4655 8.61719C83.2346 9.14631 83.1192 9.78906 83.1192 10.5455C83.1192 11.3232 83.2346 11.9766 83.4655 12.5057C83.6998 13.0348 84.0265 13.4343 84.4456 13.7042C84.8646 13.9741 85.3493 14.109 85.8998 14.109C86.2087 14.109 86.4946 14.0682 86.7574 13.9865C87.0237 13.9048 87.2599 13.7859 87.4658 13.6296C87.6718 13.4698 87.8422 13.2763 87.9772 13.049C88.1157 12.8217 88.2116 12.5625 88.2648 12.2713L90.5979 12.282C90.5376 12.7827 90.3866 13.2656 90.1452 13.7308C89.9072 14.1925 89.5858 14.6062 89.181 14.9719C88.7797 15.3342 88.3003 15.6218 87.7428 15.8349C87.1888 16.0444 86.5621 16.1491 85.8625 16.1491C84.8895 16.1491 84.0194 15.929 83.2524 15.4886C82.4889 15.0483 81.8852 14.4109 81.4413 13.5763C81.001 12.7418 80.7808 11.7315 80.7808 10.5455C80.7808 9.35582 81.0045 8.34375 81.452 7.50923C81.8994 6.67472 82.5067 6.03906 83.2737 5.60227C84.0407 5.16193 84.9037 4.94176 85.8625 4.94176C86.4946 4.94176 87.0805 5.03054 87.6203 5.2081C88.1636 5.38565 88.6448 5.64489 89.0638 5.98579C89.4829 6.32315 89.8238 6.73686 90.0866 7.22692C90.3529 7.71697 90.5233 8.27805 90.5979 8.91016ZM93.9271 16H91.4555L95.2215 5.09091H98.1938L101.954 16H99.4829L96.7503 7.58381H96.665L93.9271 16ZM93.7726 11.712H99.6107V13.5124H93.7726V11.712ZM103.267 16V5.09091H107.571C108.395 5.09091 109.098 5.23828 109.681 5.53303C110.267 5.82422 110.712 6.23793 111.018 6.77415C111.327 7.30682 111.481 7.93359 111.481 8.65447C111.481 9.37891 111.325 10.0021 111.013 10.5241C110.7 11.0426 110.247 11.4403 109.654 11.7173C109.065 11.9943 108.351 12.1328 107.513 12.1328H104.631V10.2791H107.14C107.58 10.2791 107.946 10.2187 108.237 10.098C108.528 9.97727 108.745 9.79616 108.887 9.55469C109.033 9.31321 109.106 9.01314 109.106 8.65447C109.106 8.29226 109.033 7.98686 108.887 7.73828C108.745 7.4897 108.527 7.30149 108.232 7.17365C107.941 7.04226 107.573 6.97656 107.129 6.97656H105.574V16H103.267ZM109.159 11.0355L111.87 16H109.324L106.671 11.0355H109.159Z"
            fill="currentColor" fill-opacity="0.2" />
        <line y1="20" x2="114" y2="20" stroke="currentColor" stroke-width="2" />
        <path
            d="M7.94815 37V26.0909H15.1712V27.9925H10.2546V30.592H14.6918V32.4936H10.2546V37H7.94815ZM26.7474 31.5455C26.7474 32.7351 26.5219 33.7472 26.0709 34.5817C25.6235 35.4162 25.0127 36.0536 24.2385 36.494C23.468 36.9308 22.6015 37.1491 21.6391 37.1491C20.6697 37.1491 19.7996 36.929 19.029 36.4886C18.2584 36.0483 17.6494 35.4109 17.202 34.5763C16.7545 33.7418 16.5308 32.7315 16.5308 31.5455C16.5308 30.3558 16.7545 29.3438 17.202 28.5092C17.6494 27.6747 18.2584 27.0391 19.029 26.6023C19.7996 26.1619 20.6697 25.9418 21.6391 25.9418C22.6015 25.9418 23.468 26.1619 24.2385 26.6023C25.0127 27.0391 25.6235 27.6747 26.0709 28.5092C26.5219 29.3438 26.7474 30.3558 26.7474 31.5455ZM24.409 31.5455C24.409 30.7749 24.2936 30.125 24.0628 29.5959C23.8355 29.0668 23.5141 28.6655 23.0986 28.392C22.6831 28.1186 22.1966 27.9819 21.6391 27.9819C21.0816 27.9819 20.5951 28.1186 20.1796 28.392C19.7641 28.6655 19.441 29.0668 19.2101 29.5959C18.9829 30.125 18.8692 30.7749 18.8692 31.5455C18.8692 32.3161 18.9829 32.9659 19.2101 33.495C19.441 34.0241 19.7641 34.4254 20.1796 34.6989C20.5951 34.9723 21.0816 35.109 21.6391 35.109C22.1966 35.109 22.6831 34.9723 23.0986 34.6989C23.5141 34.4254 23.8355 34.0241 24.0628 33.495C24.2936 32.9659 24.409 32.3161 24.409 31.5455ZM28.456 37V26.0909H32.7599C33.5838 26.0909 34.2869 26.2383 34.8693 26.533C35.4553 26.8242 35.9009 27.2379 36.2063 27.7741C36.5153 28.3068 36.6697 28.9336 36.6697 29.6545C36.6697 30.3789 36.5135 31.0021 36.201 31.5241C35.8885 32.0426 35.4357 32.4403 34.8427 32.7173C34.2532 32.9943 33.5394 33.1328 32.7013 33.1328H29.8196V31.2791H32.3285C32.7688 31.2791 33.1346 31.2187 33.4258 31.098C33.717 30.9773 33.9336 30.7962 34.0756 30.5547C34.2212 30.3132 34.294 30.0131 34.294 29.6545C34.294 29.2923 34.2212 28.9869 34.0756 28.7383C33.9336 28.4897 33.7152 28.3015 33.4205 28.1737C33.1293 28.0423 32.7617 27.9766 32.3178 27.9766H30.7624V37H28.456ZM34.3473 32.0355L37.0586 37H34.5124L31.8597 32.0355H34.3473ZM41.1322 26.0909H43.7156L46.2032 30.7891H46.3097L48.7973 26.0909H51.3808L47.4017 33.1435V37H45.1112V33.1435L41.1322 26.0909ZM62.0062 31.5455C62.0062 32.7351 61.7807 33.7472 61.3297 34.5817C60.8823 35.4162 60.2715 36.0536 59.4973 36.494C58.7267 36.9308 57.8603 37.1491 56.8979 37.1491C55.9284 37.1491 55.0584 36.929 54.2878 36.4886C53.5172 36.0483 52.9082 35.4109 52.4608 34.5763C52.0133 33.7418 51.7896 32.7315 51.7896 31.5455C51.7896 30.3558 52.0133 29.3438 52.4608 28.5092C52.9082 27.6747 53.5172 27.0391 54.2878 26.6023C55.0584 26.1619 55.9284 25.9418 56.8979 25.9418C57.8603 25.9418 58.7267 26.1619 59.4973 26.6023C60.2715 27.0391 60.8823 27.6747 61.3297 28.5092C61.7807 29.3438 62.0062 30.3558 62.0062 31.5455ZM59.6678 31.5455C59.6678 30.7749 59.5524 30.125 59.3216 29.5959C59.0943 29.0668 58.7729 28.6655 58.3574 28.392C57.9419 28.1186 57.4554 27.9819 56.8979 27.9819C56.3404 27.9819 55.8539 28.1186 55.4384 28.392C55.0229 28.6655 54.6998 29.0668 54.4689 29.5959C54.2417 30.125 54.128 30.7749 54.128 31.5455C54.128 32.3161 54.2417 32.9659 54.4689 33.495C54.6998 34.0241 55.0229 34.4254 55.4384 34.6989C55.8539 34.9723 56.3404 35.109 56.8979 35.109C57.4554 35.109 57.9419 34.9723 58.3574 34.6989C58.7729 34.4254 59.0943 34.0241 59.3216 33.495C59.5524 32.9659 59.6678 32.3161 59.6678 31.5455ZM70.453 26.0909H72.7595V33.1754C72.7595 33.9709 72.5695 34.6669 72.1895 35.2635C71.8131 35.8601 71.2858 36.3253 70.6075 36.6591C69.9292 36.9893 69.1391 37.1545 68.2371 37.1545C67.3316 37.1545 66.5397 36.9893 65.8614 36.6591C65.1831 36.3253 64.6558 35.8601 64.2794 35.2635C63.903 34.6669 63.7148 33.9709 63.7148 33.1754V26.0909H66.0212V32.9783C66.0212 33.3938 66.1118 33.7631 66.2929 34.0863C66.4775 34.4094 66.7368 34.6634 67.0706 34.848C67.4044 35.0327 67.7932 35.125 68.2371 35.125C68.6846 35.125 69.0734 35.0327 69.4037 34.848C69.7375 34.6634 69.9949 34.4094 70.176 34.0863C70.3607 33.7631 70.453 33.3938 70.453 32.9783V26.0909ZM74.6571 37V26.0909H78.9611C79.785 26.0909 80.4881 26.2383 81.0705 26.533C81.6564 26.8242 82.1021 27.2379 82.4075 27.7741C82.7164 28.3068 82.8709 28.9336 82.8709 29.6545C82.8709 30.3789 82.7147 31.0021 82.4022 31.5241C82.0897 32.0426 81.6369 32.4403 81.0439 32.7173C80.4544 32.9943 79.7406 33.1328 78.9025 33.1328H76.0208V31.2791H78.5297C78.97 31.2791 79.3358 31.2187 79.627 31.098C79.9181 30.9773 80.1348 30.7962 80.2768 30.5547C80.4224 30.3132 80.4952 30.0131 80.4952 29.6545C80.4952 29.2923 80.4224 28.9869 80.2768 28.7383C80.1348 28.4897 79.9164 28.3015 79.6216 28.1737C79.3304 28.0423 78.9629 27.9766 78.519 27.9766H76.9636V37H74.6571ZM80.5485 32.0355L83.2598 37H80.7136L78.0609 32.0355H80.5485ZM97.5979 29.9102H95.2648C95.2222 29.6083 95.1352 29.3402 95.0038 29.1058C94.8724 28.8679 94.7037 28.6655 94.4978 28.4986C94.2918 28.3317 94.0539 28.2038 93.784 28.1151C93.5177 28.0263 93.2282 27.9819 92.9157 27.9819C92.3511 27.9819 91.8593 28.1222 91.4403 28.4027C91.0212 28.6797 90.6963 29.0845 90.4655 29.6172C90.2346 30.1463 90.1192 30.7891 90.1192 31.5455C90.1192 32.3232 90.2346 32.9766 90.4655 33.5057C90.6998 34.0348 91.0265 34.4343 91.4456 34.7042C91.8646 34.9741 92.3493 35.109 92.8998 35.109C93.2087 35.109 93.4946 35.0682 93.7574 34.9865C94.0237 34.9048 94.2599 34.7859 94.4658 34.6296C94.6718 34.4698 94.8422 34.2763 94.9772 34.049C95.1157 33.8217 95.2116 33.5625 95.2648 33.2713L97.5979 33.282C97.5376 33.7827 97.3866 34.2656 97.1452 34.7308C96.9072 35.1925 96.5858 35.6062 96.181 35.9719C95.7797 36.3342 95.3003 36.6218 94.7428 36.8349C94.1888 37.0444 93.5621 37.1491 92.8625 37.1491C91.8895 37.1491 91.0194 36.929 90.2524 36.4886C89.4889 36.0483 88.8852 35.4109 88.4413 34.5763C88.001 33.7418 87.7808 32.7315 87.7808 31.5455C87.7808 30.3558 88.0045 29.3438 88.452 28.5092C88.8994 27.6747 89.5067 27.0391 90.2737 26.6023C91.0407 26.1619 91.9037 25.9418 92.8625 25.9418C93.4946 25.9418 94.0805 26.0305 94.6203 26.2081C95.1636 26.3857 95.6448 26.6449 96.0638 26.9858C96.4829 27.3232 96.8238 27.7369 97.0866 28.2269C97.3529 28.717 97.5233 29.2781 97.5979 29.9102ZM100.927 37H98.4555L102.222 26.0909H105.194L108.954 37H106.483L103.75 28.5838H103.665L100.927 37ZM100.773 32.712H106.611V34.5124H100.773V32.712ZM110.267 37V26.0909H114.571C115.395 26.0909 116.098 26.2383 116.681 26.533C117.267 26.8242 117.712 27.2379 118.018 27.7741C118.327 28.3068 118.481 28.9336 118.481 29.6545C118.481 30.3789 118.325 31.0021 118.013 31.5241C117.7 32.0426 117.247 32.4403 116.654 32.7173C116.065 32.9943 115.351 33.1328 114.513 33.1328H111.631V31.2791H114.14C114.58 31.2791 114.946 31.2187 115.237 31.098C115.528 30.9773 115.745 30.7962 115.887 30.5547C116.033 30.3132 116.106 30.0131 116.106 29.6545C116.106 29.2923 116.033 28.9869 115.887 28.7383C115.745 28.4897 115.527 28.3015 115.232 28.1737C114.941 28.0423 114.573 27.9766 114.129 27.9766H112.574V37H110.267ZM116.159 32.0355L118.87 37H116.324L113.671 32.0355H116.159Z"
            fill="currentColor" />
        <path
            d="M7.94815 37V26.0909H15.1712V27.9925H10.2546V30.592H14.6918V32.4936H10.2546V37H7.94815ZM26.7474 31.5455C26.7474 32.7351 26.5219 33.7472 26.0709 34.5817C25.6235 35.4162 25.0127 36.0536 24.2385 36.494C23.468 36.9308 22.6015 37.1491 21.6391 37.1491C20.6697 37.1491 19.7996 36.929 19.029 36.4886C18.2584 36.0483 17.6494 35.4109 17.202 34.5763C16.7545 33.7418 16.5308 32.7315 16.5308 31.5455C16.5308 30.3558 16.7545 29.3438 17.202 28.5092C17.6494 27.6747 18.2584 27.0391 19.029 26.6023C19.7996 26.1619 20.6697 25.9418 21.6391 25.9418C22.6015 25.9418 23.468 26.1619 24.2385 26.6023C25.0127 27.0391 25.6235 27.6747 26.0709 28.5092C26.5219 29.3438 26.7474 30.3558 26.7474 31.5455ZM24.409 31.5455C24.409 30.7749 24.2936 30.125 24.0628 29.5959C23.8355 29.0668 23.5141 28.6655 23.0986 28.392C22.6831 28.1186 22.1966 27.9819 21.6391 27.9819C21.0816 27.9819 20.5951 28.1186 20.1796 28.392C19.7641 28.6655 19.441 29.0668 19.2101 29.5959C18.9829 30.125 18.8692 30.7749 18.8692 31.5455C18.8692 32.3161 18.9829 32.9659 19.2101 33.495C19.441 34.0241 19.7641 34.4254 20.1796 34.6989C20.5951 34.9723 21.0816 35.109 21.6391 35.109C22.1966 35.109 22.6831 34.9723 23.0986 34.6989C23.5141 34.4254 23.8355 34.0241 24.0628 33.495C24.2936 32.9659 24.409 32.3161 24.409 31.5455ZM28.456 37V26.0909H32.7599C33.5838 26.0909 34.2869 26.2383 34.8693 26.533C35.4553 26.8242 35.9009 27.2379 36.2063 27.7741C36.5153 28.3068 36.6697 28.9336 36.6697 29.6545C36.6697 30.3789 36.5135 31.0021 36.201 31.5241C35.8885 32.0426 35.4357 32.4403 34.8427 32.7173C34.2532 32.9943 33.5394 33.1328 32.7013 33.1328H29.8196V31.2791H32.3285C32.7688 31.2791 33.1346 31.2187 33.4258 31.098C33.717 30.9773 33.9336 30.7962 34.0756 30.5547C34.2212 30.3132 34.294 30.0131 34.294 29.6545C34.294 29.2923 34.2212 28.9869 34.0756 28.7383C33.9336 28.4897 33.7152 28.3015 33.4205 28.1737C33.1293 28.0423 32.7617 27.9766 32.3178 27.9766H30.7624V37H28.456ZM34.3473 32.0355L37.0586 37H34.5124L31.8597 32.0355H34.3473ZM41.1322 26.0909H43.7156L46.2032 30.7891H46.3097L48.7973 26.0909H51.3808L47.4017 33.1435V37H45.1112V33.1435L41.1322 26.0909ZM62.0062 31.5455C62.0062 32.7351 61.7807 33.7472 61.3297 34.5817C60.8823 35.4162 60.2715 36.0536 59.4973 36.494C58.7267 36.9308 57.8603 37.1491 56.8979 37.1491C55.9284 37.1491 55.0584 36.929 54.2878 36.4886C53.5172 36.0483 52.9082 35.4109 52.4608 34.5763C52.0133 33.7418 51.7896 32.7315 51.7896 31.5455C51.7896 30.3558 52.0133 29.3438 52.4608 28.5092C52.9082 27.6747 53.5172 27.0391 54.2878 26.6023C55.0584 26.1619 55.9284 25.9418 56.8979 25.9418C57.8603 25.9418 58.7267 26.1619 59.4973 26.6023C60.2715 27.0391 60.8823 27.6747 61.3297 28.5092C61.7807 29.3438 62.0062 30.3558 62.0062 31.5455ZM59.6678 31.5455C59.6678 30.7749 59.5524 30.125 59.3216 29.5959C59.0943 29.0668 58.7729 28.6655 58.3574 28.392C57.9419 28.1186 57.4554 27.9819 56.8979 27.9819C56.3404 27.9819 55.8539 28.1186 55.4384 28.392C55.0229 28.6655 54.6998 29.0668 54.4689 29.5959C54.2417 30.125 54.128 30.7749 54.128 31.5455C54.128 32.3161 54.2417 32.9659 54.4689 33.495C54.6998 34.0241 55.0229 34.4254 55.4384 34.6989C55.8539 34.9723 56.3404 35.109 56.8979 35.109C57.4554 35.109 57.9419 34.9723 58.3574 34.6989C58.7729 34.4254 59.0943 34.0241 59.3216 33.495C59.5524 32.9659 59.6678 32.3161 59.6678 31.5455ZM70.453 26.0909H72.7595V33.1754C72.7595 33.9709 72.5695 34.6669 72.1895 35.2635C71.8131 35.8601 71.2858 36.3253 70.6075 36.6591C69.9292 36.9893 69.1391 37.1545 68.2371 37.1545C67.3316 37.1545 66.5397 36.9893 65.8614 36.6591C65.1831 36.3253 64.6558 35.8601 64.2794 35.2635C63.903 34.6669 63.7148 33.9709 63.7148 33.1754V26.0909H66.0212V32.9783C66.0212 33.3938 66.1118 33.7631 66.2929 34.0863C66.4775 34.4094 66.7368 34.6634 67.0706 34.848C67.4044 35.0327 67.7932 35.125 68.2371 35.125C68.6846 35.125 69.0734 35.0327 69.4037 34.848C69.7375 34.6634 69.9949 34.4094 70.176 34.0863C70.3607 33.7631 70.453 33.3938 70.453 32.9783V26.0909ZM74.6571 37V26.0909H78.9611C79.785 26.0909 80.4881 26.2383 81.0705 26.533C81.6564 26.8242 82.1021 27.2379 82.4075 27.7741C82.7164 28.3068 82.8709 28.9336 82.8709 29.6545C82.8709 30.3789 82.7147 31.0021 82.4022 31.5241C82.0897 32.0426 81.6369 32.4403 81.0439 32.7173C80.4544 32.9943 79.7406 33.1328 78.9025 33.1328H76.0208V31.2791H78.5297C78.97 31.2791 79.3358 31.2187 79.627 31.098C79.9181 30.9773 80.1348 30.7962 80.2768 30.5547C80.4224 30.3132 80.4952 30.0131 80.4952 29.6545C80.4952 29.2923 80.4224 28.9869 80.2768 28.7383C80.1348 28.4897 79.9164 28.3015 79.6216 28.1737C79.3304 28.0423 78.9629 27.9766 78.519 27.9766H76.9636V37H74.6571ZM80.5485 32.0355L83.2598 37H80.7136L78.0609 32.0355H80.5485ZM97.5979 29.9102H95.2648C95.2222 29.6083 95.1352 29.3402 95.0038 29.1058C94.8724 28.8679 94.7037 28.6655 94.4978 28.4986C94.2918 28.3317 94.0539 28.2038 93.784 28.1151C93.5177 28.0263 93.2282 27.9819 92.9157 27.9819C92.3511 27.9819 91.8593 28.1222 91.4403 28.4027C91.0212 28.6797 90.6963 29.0845 90.4655 29.6172C90.2346 30.1463 90.1192 30.7891 90.1192 31.5455C90.1192 32.3232 90.2346 32.9766 90.4655 33.5057C90.6998 34.0348 91.0265 34.4343 91.4456 34.7042C91.8646 34.9741 92.3493 35.109 92.8998 35.109C93.2087 35.109 93.4946 35.0682 93.7574 34.9865C94.0237 34.9048 94.2599 34.7859 94.4658 34.6296C94.6718 34.4698 94.8422 34.2763 94.9772 34.049C95.1157 33.8217 95.2116 33.5625 95.2648 33.2713L97.5979 33.282C97.5376 33.7827 97.3866 34.2656 97.1452 34.7308C96.9072 35.1925 96.5858 35.6062 96.181 35.9719C95.7797 36.3342 95.3003 36.6218 94.7428 36.8349C94.1888 37.0444 93.5621 37.1491 92.8625 37.1491C91.8895 37.1491 91.0194 36.929 90.2524 36.4886C89.4889 36.0483 88.8852 35.4109 88.4413 34.5763C88.001 33.7418 87.7808 32.7315 87.7808 31.5455C87.7808 30.3558 88.0045 29.3438 88.452 28.5092C88.8994 27.6747 89.5067 27.0391 90.2737 26.6023C91.0407 26.1619 91.9037 25.9418 92.8625 25.9418C93.4946 25.9418 94.0805 26.0305 94.6203 26.2081C95.1636 26.3857 95.6448 26.6449 96.0638 26.9858C96.4829 27.3232 96.8238 27.7369 97.0866 28.2269C97.3529 28.717 97.5233 29.2781 97.5979 29.9102ZM100.927 37H98.4555L102.222 26.0909H105.194L108.954 37H106.483L103.75 28.5838H103.665L100.927 37ZM100.773 32.712H106.611V34.5124H100.773V32.712ZM110.267 37V26.0909H114.571C115.395 26.0909 116.098 26.2383 116.681 26.533C117.267 26.8242 117.712 27.2379 118.018 27.7741C118.327 28.3068 118.481 28.9336 118.481 29.6545C118.481 30.3789 118.325 31.0021 118.013 31.5241C117.7 32.0426 117.247 32.4403 116.654 32.7173C116.065 32.9943 115.351 33.1328 114.513 33.1328H111.631V31.2791H114.14C114.58 31.2791 114.946 31.2187 115.237 31.098C115.528 30.9773 115.745 30.7962 115.887 30.5547C116.033 30.3132 116.106 30.0131 116.106 29.6545C116.106 29.2923 116.033 28.9869 115.887 28.7383C115.745 28.4897 115.527 28.3015 115.232 28.1737C114.941 28.0423 114.573 27.9766 114.129 27.9766H112.574V37H110.267ZM116.159 32.0355L118.87 37H116.324L113.671 32.0355H116.159Z"
            fill="currentColor" fill-opacity="0.2" />
        <line x1="7" y1="41" x2="121" y2="41" stroke="currentColor" stroke-width="2" />
    </symbol>
    <symbol id="icon-wa" viewBox="0 0 24 24" fill="none"
        xmlns="http://www.w3.org/2000/svg">
        <path fill-rule="evenodd" clip-rule="evenodd"
            d="M11.9975 2H12.0025C17.5162 2 22 6.48625 22 12C22 17.5138 17.5162 22 12.0025 22C9.96875 22 8.0825 21.395 6.50125 20.3475L2.6575 21.5763L3.90375 17.8612C2.705 16.215 2 14.1875 2 12C2 6.485 6.48375 2 11.9975 2ZM15.8592 17.5325C16.6229 17.3675 17.5804 16.8025 17.8217 16.1212C18.0629 15.4387 18.0629 14.8575 17.9929 14.7337C17.9364 14.6355 17.8028 14.5712 17.6032 14.4751C17.5513 14.4501 17.4949 14.423 17.4342 14.3925C17.1404 14.2462 15.7117 13.54 15.4417 13.4462C15.1767 13.3462 14.9242 13.3812 14.7242 13.6637C14.6861 13.717 14.6482 13.7704 14.6105 13.8234C14.3692 14.1628 14.1364 14.4901 13.9429 14.6987C13.7667 14.8862 13.4792 14.91 13.2379 14.81C13.2116 14.799 13.1815 14.7868 13.1477 14.7732C12.7657 14.6189 11.9185 14.2767 10.8929 13.3637C10.0279 12.5937 9.44043 11.635 9.27043 11.3475C9.10352 11.0591 9.24749 10.89 9.38055 10.7337C9.38302 10.7308 9.38548 10.7279 9.38793 10.725C9.47372 10.6188 9.55697 10.5305 9.64064 10.4416C9.70082 10.3777 9.76122 10.3136 9.82293 10.2425C9.8321 10.2319 9.84101 10.2217 9.84969 10.2117C9.98073 10.061 10.0588 9.9713 10.1467 9.78373C10.2467 9.58998 10.1754 9.38998 10.1042 9.24248C10.0552 9.13918 9.75233 8.40444 9.49237 7.7737C9.38112 7.50379 9.27773 7.25292 9.20543 7.07873C9.01168 6.61498 8.86418 6.59748 8.57043 6.58498C8.56143 6.58453 8.55235 6.58407 8.54317 6.58361C8.45031 6.57891 8.34805 6.57373 8.23543 6.57373C7.85293 6.57373 7.45418 6.68623 7.21293 6.93248C7.2045 6.94109 7.19571 6.95003 7.18659 6.9593C6.87795 7.27319 6.19043 7.97241 6.19043 9.36623C6.19043 10.7627 7.1813 12.1143 7.36465 12.3643C7.3697 12.3712 7.37414 12.3773 7.37793 12.3825C7.38896 12.397 7.40975 12.4271 7.44002 12.4709C7.81437 13.013 9.63772 15.6535 12.3567 16.78C14.6542 17.7325 15.3367 17.6437 15.8592 17.5325Z"
            fill="currentColor" />
    </symbol>
    <symbol id="icon-tg" viewBox="0 0 24 24" fill="none" xmlns="http://www.w3.org/2000/svg">
        <mask id="mask0_5431_563" style="mask-type:luminance" maskUnits="userSpaceOnUse" x="1" y="3"
            width="22" height="18">
            <path fill-rule="evenodd" clip-rule="evenodd" d="M1 3H23V21H1V3Z" fill="currentColor" />
        </mask>
        <g mask="url(#mask0_5431_563)">
            <path fill-rule="evenodd" clip-rule="evenodd"
                d="M23 4.44622C22.8844 4.94953 22.7641 5.45183 22.6541 5.95632C21.9432 9.21875 21.2346 12.4817 20.5249 15.7444C20.2192 17.1495 19.9158 18.5552 19.603 19.9588C19.5624 20.1412 19.4899 20.3224 19.4006 20.4876C19.1615 20.9292 18.7678 21.0957 18.2832 20.9467C18.0623 20.8787 17.8397 20.7793 17.653 20.6465C16.0719 19.5215 14.4989 18.3855 12.9234 17.253C12.8664 17.212 12.8079 17.1728 12.7399 17.1257C12.6876 17.1696 12.6382 17.2072 12.5931 17.2494C11.7797 18.0104 10.9662 18.7713 10.1542 19.5339C9.91227 19.761 9.63696 19.8977 9.27512 19.8772C9.30507 19.4379 9.33256 19.0127 9.36336 18.5878C9.4279 17.6981 9.49409 16.8085 9.55983 15.9189C9.57019 15.7788 9.60741 15.6354 9.58869 15.4993C9.51791 14.9864 9.8116 14.689 10.1703 14.3751C13.0869 11.8221 15.9895 9.25373 18.8963 6.68988C18.9389 6.65231 18.9941 6.62065 19.0193 6.57374C19.0653 6.48769 19.0932 6.39231 19.1288 6.3008C19.0307 6.27375 18.9221 6.20659 18.8365 6.22797C18.6602 6.27189 18.4834 6.34309 18.3288 6.43786C14.5401 8.76116 10.7542 11.0888 6.96864 13.4171C6.86231 13.4825 6.77103 13.5187 6.63452 13.4764C5.02852 12.9785 3.41891 12.492 1.81302 11.9937C1.61873 11.9334 1.42536 11.8433 1.25913 11.7285C0.946656 11.5128 0.909036 11.1969 1.18858 10.9419C1.39335 10.7551 1.64129 10.5893 1.90005 10.4883C3.25308 9.96035 4.61532 9.4553 5.97499 8.94378C11.1402 7.00084 16.3055 5.05785 21.4722 3.1188C21.6366 3.0571 21.8158 3.01649 21.9911 3.00328C22.4558 2.96829 22.8006 3.21525 22.9427 3.65883C22.9594 3.71108 22.9808 3.76198 23 3.8135V4.44622Z"
                fill="currentColor" />
        </g>
    </symbol>
    <symbol id="icon-phone" viewBox="0 0 24 24" fill="none" xmlns="http://www.w3.org/2000/svg">
        <g clip-path="url(#clip0_5311_2356)">
            <path
                d="M22.3365 17.9228L17.9204 14.9778C17.36 14.6071 16.6088 14.7291 16.1945 15.2581L14.9081 16.9121C14.7428 17.13 14.4423 17.1933 14.2031 17.0604L13.9584 16.9255C13.1473 16.4834 12.138 15.9329 10.1045 13.8987C8.07095 11.8645 7.5194 10.8544 7.07726 10.0447L6.94309 9.80004C6.80841 9.56093 6.87045 9.25914 7.08851 9.0925L8.74133 7.80653C9.27017 7.39217 9.39233 6.64118 9.02203 6.08059L6.07701 1.66452C5.69751 1.09366 4.93612 0.922296 4.3486 1.27547L2.50196 2.38475C1.92173 2.72586 1.49604 3.27831 1.31415 3.92632C0.649182 6.34923 1.14943 10.5308 7.30926 16.6913C12.2093 21.591 15.8571 22.9086 18.3644 22.9086C18.9414 22.9111 19.5162 22.836 20.0732 22.6854C20.7214 22.5037 21.2739 22.078 21.6148 21.4976L22.7252 19.652C23.0789 19.0644 22.9076 18.3025 22.3365 17.9228ZM22.0987 19.279L20.9909 21.1256C20.7461 21.5445 20.3487 21.8525 19.8819 21.9851C17.6452 22.5992 13.7374 22.0906 7.8237 16.1769C1.91002 10.2632 1.40141 6.35579 2.01551 4.1187C2.14828 3.65138 2.45667 3.25347 2.8761 3.00831L4.72274 1.90047C4.97766 1.74709 5.30812 1.82144 5.4728 2.06916L7.07258 4.47097L8.4153 6.48485C8.5761 6.72801 8.52327 7.05391 8.29387 7.23385L6.64066 8.51982C6.13756 8.90452 5.99389 9.6006 6.30364 10.153L6.43491 10.3916C6.89959 11.2438 7.4773 12.304 9.58645 14.4128C11.6956 16.5216 12.7555 17.0993 13.6073 17.5639L13.8462 17.6956C14.3986 18.0053 15.0947 17.8616 15.4794 17.3585L16.7654 15.7053C16.9453 15.4761 17.2711 15.4233 17.5143 15.5839L21.93 18.5289C22.1779 18.6935 22.2523 19.0241 22.0987 19.279Z"
                fill="currentColor" stroke="currentColor" stroke-width="0.3" />
        </g>
        <defs>
            <clipPath id="clip0_5311_2356">
                <rect width="24" height="24" fill="currentColor" />
            </clipPath>
        </defs>
    </symbol>
    <symbol id="icon-avito" viewBox="0 0 77 26" fill="none" xmlns="http://www.w3.org/2000/svg">
        <path
            d="M9.36 0.625L0 25.065H5.03L6.95 19.965H16.89L18.82 25.065H23.81L14.5 0.625H9.35H9.36ZM8.68 15.475L11.95 6.875L15.2 15.475H8.68ZM29.82 18.765L25.76 7.895H20.96L27.5 25.065H32.25L38.69 7.905H33.89L29.83 18.775L29.82 18.765ZM44.72 7.895H40.15V25.065H44.71V7.905L44.72 7.895ZM42.42 6.655C42.872 6.6798 43.3243 6.61218 43.7492 6.45629C44.1742 6.30039 44.5629 6.05949 44.8917 5.7483C45.2204 5.43711 45.4822 5.06216 45.6612 4.64637C45.8401 4.23057 45.9324 3.78266 45.9324 3.33C45.9324 2.87734 45.8401 2.42943 45.6612 2.01363C45.4822 1.59784 45.2204 1.22289 44.8917 0.911701C44.5629 0.60051 44.1742 0.359608 43.7492 0.203713C43.3243 0.0478184 42.872 -0.0197963 42.42 0.00500021C41.5697 0.0516497 40.7696 0.422296 40.1841 1.04074C39.5987 1.65918 39.2724 2.47841 39.2724 3.33C39.2724 4.18159 39.5987 5.00082 40.1841 5.61926C40.7696 6.2377 41.5697 6.60835 42.42 6.655ZM53.76 3.315H49.2V7.865H46.53V12.005H49.2V19.305C49.2 23.435 51.48 25.225 54.69 25.225C55.7715 25.2373 56.8438 25.0262 57.84 24.605V20.345C57.3 20.545 56.73 20.645 56.14 20.655C54.75 20.655 53.74 20.115 53.74 18.255V12.005H57.84V7.905H53.74V3.315H53.76ZM67.46 7.585C65.6989 7.58318 63.9769 8.10386 62.5119 9.08113C61.0469 10.0584 59.9047 11.4483 59.23 13.075C58.3299 15.2523 58.3299 17.6977 59.23 19.875C60.1265 22.0576 61.853 23.7949 64.03 24.705C65.1109 25.1537 66.2697 25.3847 67.44 25.385C69.1889 25.3681 70.8941 24.8363 72.3425 23.856C73.791 22.8757 74.9185 21.4903 75.5842 19.873C76.2499 18.2557 76.4243 16.478 76.0856 14.7621C75.747 13.0462 74.9103 11.4681 73.68 10.225C72.0319 8.55913 69.7932 7.6105 67.45 7.585H67.46ZM67.46 20.825C66.8191 20.8268 66.1858 20.6863 65.6058 20.4137C65.0258 20.1411 64.5136 19.7431 64.106 19.2485C63.6985 18.7539 63.4058 18.175 63.2491 17.5536C63.0925 16.9322 63.0757 16.2837 63.2 15.655C63.3652 14.8136 63.7765 14.0403 64.3817 13.4329C64.987 12.8255 65.7589 12.4116 66.5997 12.2434C67.4405 12.0752 68.3122 12.1605 69.1045 12.4883C69.8968 12.8162 70.5739 13.3719 71.05 14.085C71.5267 14.7983 71.7808 15.6371 71.78 16.495C71.78 17.0632 71.6679 17.6257 71.4502 18.1505C71.2325 18.6753 70.9134 19.152 70.5112 19.5532C70.109 19.9545 69.6315 20.2725 69.1063 20.489C68.581 20.7055 68.0181 20.8163 67.45 20.815V20.825H67.46Z"
            fill="currentColor"></path>
    </symbol>
    <symbol id="icon-phone-contact" width="16" height="16" viewBox="0 0 16 16" fill="none"
        xmlns="http://www.w3.org/2000/svg">
        <path
            d="M13.0371 9.87663C12.3024 9.87663 11.5811 9.76172 10.8975 9.53581C10.5625 9.42156 10.1507 9.52638 9.94628 9.73634L8.597 10.7549C7.03222 9.91963 6.06834 8.95606 5.24447 7.40303L6.23306 6.08891C6.48991 5.83241 6.58203 5.45772 6.47166 5.10616C6.24478 4.41897 6.12953 3.69794 6.12953 2.96294C6.12956 2.43197 5.69759 2 5.16666 2H2.96291C2.43197 2 2 2.43197 2 2.96291C2 9.04884 6.95119 14 13.0371 14C13.5681 14 14 13.568 14 13.0371V10.8395C14 10.3086 13.568 9.87663 13.0371 9.87663Z"
            fill="currentColor"/>
    </symbol>
    <symbol id="icon-mail-contact" width="16" height="16" viewBox="0 0 16 16" fill="none" xmlns="http://www.w3.org/2000/svg">
<path d="M14.8768 4.78143L10.6309 9L14.8768 13.2186C14.9535 13.0581 15.0001 12.8808 15.0001 12.6914V5.30859C15.0001 5.11918 14.9535 4.94186 14.8768 4.78143Z" fill="#242424"/>
<path d="M13.7693 4.07812H2.23029C2.04087 4.07812 1.86355 4.12469 1.70312 4.20145L7.12985 9.60082C7.60968 10.0807 8.38996 10.0807 8.86978 9.60082L14.2965 4.20145C14.1361 4.12469 13.9588 4.07812 13.7693 4.07812Z" fill="#242424"/>
<path d="M1.12332 4.78143C1.04657 4.94186 1 5.11918 1 5.30859V12.6914C1 12.8808 1.04657 13.0582 1.12332 13.2186L5.36923 9L1.12332 4.78143Z" fill="#242424"/>
<path d="M10.0506 9.57999L9.44977 10.1808C8.65027 10.9803 7.34934 10.9803 6.54983 10.1808L5.94903 9.57999L1.70312 13.7986C1.86355 13.8753 2.04087 13.9219 2.23029 13.9219H13.7693C13.9588 13.9219 14.1361 13.8753 14.2965 13.7986L10.0506 9.57999Z" fill="#242424"/>
</symbol>
</svg>